<svg xmlns="http://www.w3.org/2000/svg" xmlns:xlink="http://www.w3.org/1999/xlink" width="480" zoomAndPan="magnify" viewBox="0 0 360 359.999987" height="480" preserveAspectRatio="xMidYMid meet" version="1.0"><path fill="#000000" d="M 266.855469 278.007812 C 249.402344 278.007812 235.207031 263.808594 235.207031 246.355469 C 235.207031 228.902344 249.402344 214.707031 266.855469 214.707031 C 284.308594 214.707031 298.507812 228.902344 298.507812 246.355469 C 298.503906 263.808594 284.304688 278.007812 266.855469 278.007812 Z M 185.617188 265.808594 C 185.617188 221.011719 222.0625 184.566406 266.855469 184.566406 C 311.652344 184.566406 348.101562 221.011719 348.101562 265.808594 C 348.097656 311.382812 309.96875 348.570312 264.761719 347.023438 C 220.742188 345.921875 185.617188 309.800781 185.617188 265.808594 Z M 266.855469 196.359375 C 208.300781 196.359375 176.253906 264.699219 213.097656 309.722656 C 243.71875 282.59375 290 282.597656 320.617188 309.722656 C 357.460938 264.699219 325.414062 196.359375 266.855469 196.359375 Z M 221.320312 318.195312 C 247.457031 340.945312 286.269531 340.933594 312.390625 318.199219 C 286.363281 295.496094 247.351562 295.496094 221.320312 318.195312 Z M 12.074219 92.847656 C 12.074219 48.050781 48.523438 11.601562 93.316406 11.601562 C 138.113281 11.601562 174.558594 48.050781 174.558594 92.84375 C 174.558594 138.453125 136.441406 175.566406 91.222656 174.0625 C 47.203125 172.960938 12.074219 136.839844 12.074219 92.847656 Z M 93.316406 23.394531 C 34.753906 23.394531 2.710938 91.738281 39.558594 136.761719 C 70.175781 109.636719 116.457031 109.636719 147.074219 136.765625 C 183.921875 91.742188 151.878906 23.394531 93.316406 23.394531 Z M 47.78125 145.234375 C 73.910156 167.976562 112.722656 167.976562 138.855469 145.234375 C 112.820312 122.53125 73.8125 122.53125 47.78125 145.234375 Z M 330.871094 178.875 C 323.824219 178.875 317.574219 174.621094 314.949219 168.039062 C 311.914062 160.476562 305.8125 150.6875 299.40625 143.105469 C 290.691406 132.792969 278.457031 122.347656 271.933594 122.347656 C 265.875 122.347656 269.765625 136.78125 254.738281 140.175781 C 248.4375 141.597656 242.0625 139.480469 237.867188 134.578125 L 195.179688 84.632812 C 187.335938 75.453125 191.144531 61.257812 202.527344 57.234375 L 264.449219 35.363281 C 277.449219 30.773438 290.355469 42.746094 286.796875 56.035156 C 285.597656 60.527344 285.703125 60.054688 291.886719 62.34375 C 296.070312 63.890625 301.800781 66.011719 307.945312 70.355469 C 333.238281 88.21875 347.113281 118.265625 348.074219 157.25 C 348.203125 162.320312 348.539062 175.796875 334.171875 178.558594 C 333.082031 178.769531 331.972656 178.875 330.871094 178.875 Z M 271.929688 110.558594 C 291.933594 110.558594 318.480469 145.089844 325.898438 163.660156 C 326.875 166.109375 329.332031 167.472656 331.945312 166.980469 C 334.765625 166.433594 336.488281 165.691406 336.285156 157.542969 C 335.679688 133.058594 329.089844 99.734375 301.140625 79.988281 C 287.988281 70.695312 270.085938 72.871094 275.40625 52.988281 C 276.539062 48.753906 272.503906 45.03125 268.378906 46.488281 L 206.457031 68.355469 C 202.84375 69.632812 201.652344 74.058594 204.144531 76.972656 L 246.828125 126.917969 C 249.679688 130.25 255.03125 129.03125 256.164062 124.800781 C 259.480469 112.40625 267.464844 110.558594 271.929688 110.558594 Z M 90.46875 324.300781 C 79.285156 324.300781 71.019531 313.515625 73.945312 302.609375 C 75.148438 298.125 75.042969 298.59375 68.859375 296.304688 C 64.679688 294.757812 58.949219 292.636719 52.796875 288.289062 C 27.511719 270.429688 13.636719 240.382812 12.667969 201.402344 C 12.503906 194.738281 13.625 179.773438 29.871094 179.773438 C 36.917969 179.773438 43.167969 184.027344 45.792969 190.609375 C 48.828125 198.167969 54.925781 207.957031 61.335938 215.542969 C 70.050781 225.859375 82.289062 236.300781 88.8125 236.300781 C 94.867188 236.300781 90.980469 221.871094 106.003906 218.472656 C 112.3125 217.050781 118.6875 219.167969 122.882812 224.074219 L 165.566406 274.019531 C 173.410156 283.195312 169.601562 297.390625 158.21875 301.414062 L 96.289062 323.285156 C 94.390625 323.957031 92.433594 324.300781 90.46875 324.300781 Z M 29.875 191.570312 C 25.878906 191.570312 24.269531 193.386719 24.460938 201.113281 C 25.070312 225.597656 31.660156 258.921875 59.605469 278.664062 C 72.746094 287.945312 90.667969 285.792969 85.339844 305.664062 C 84.207031 309.898438 88.238281 313.625 92.363281 312.164062 L 154.292969 290.292969 C 157.902344 289.019531 159.09375 284.597656 156.601562 281.683594 L 113.917969 231.738281 C 111.070312 228.40625 105.714844 229.628906 104.582031 233.851562 C 101.265625 246.242188 93.28125 248.09375 88.820312 248.09375 C 68.820312 248.097656 42.257812 213.550781 34.84375 194.992188 C 34.003906 192.875 32.097656 191.570312 29.875 191.570312 Z M 93.316406 105.042969 C 75.867188 105.042969 61.667969 90.84375 61.667969 73.394531 C 61.667969 55.941406 75.867188 41.742188 93.316406 41.742188 C 110.769531 41.742188 124.96875 55.941406 124.96875 73.394531 C 124.96875 90.84375 110.769531 105.042969 93.316406 105.042969 Z M 93.316406 53.539062 C 82.367188 53.539062 73.464844 62.445312 73.464844 73.394531 C 73.464844 84.339844 82.371094 93.246094 93.316406 93.246094 C 104.265625 93.246094 113.171875 84.339844 113.171875 73.394531 C 113.171875 62.445312 104.269531 53.539062 93.316406 53.539062 Z M 266.855469 226.5 C 255.90625 226.5 247.003906 235.410156 247.003906 246.355469 C 247.003906 257.304688 255.910156 266.214844 266.855469 266.214844 C 277.804688 266.214844 286.710938 257.304688 286.710938 246.355469 C 286.710938 235.410156 277.804688 226.5 266.855469 226.5 Z M 266.855469 226.5 " fill-opacity="1" fill-rule="evenodd"/></svg>