<svg xmlns="http://www.w3.org/2000/svg" xmlns:xlink="http://www.w3.org/1999/xlink" width="2000" zoomAndPan="magnify" viewBox="0 0 1500 1499.999933" height="2000" preserveAspectRatio="xMidYMid meet" version="1.0"><defs><clipPath id="d7b300f98f"><path d="M 209 928 L 1279 928 L 1279 1478.921875 L 209 1478.921875 Z M 209 928 " clip-rule="nonzero"/></clipPath><clipPath id="864d461914"><path d="M 27.304688 393 L 476 393 L 476 715 L 27.304688 715 Z M 27.304688 393 " clip-rule="nonzero"/></clipPath><clipPath id="fa359a4275"><path d="M 984 20.921875 L 1326 20.921875 L 1326 362 L 984 362 Z M 984 20.921875 " clip-rule="nonzero"/></clipPath><clipPath id="e69b5786e4"><path d="M 174 20.921875 L 516 20.921875 L 516 362 L 174 362 Z M 174 20.921875 " clip-rule="nonzero"/></clipPath><clipPath id="fcc09c25f2"><path d="M 1014 393 L 1472.554688 393 L 1472.554688 715 L 1014 715 Z M 1014 393 " clip-rule="nonzero"/></clipPath></defs><g clip-path="url(#d7b300f98f)"><path fill="#ffffff" d="M 840.988281 928.21875 L 646.570312 928.21875 C 405.363281 928.21875 209.125 1124.457031 209.125 1365.664062 L 209.125 1479.074219 L 1278.4375 1479.074219 L 1278.4375 1365.664062 C 1278.4375 1124.457031 1082.199219 928.21875 840.988281 928.21875 Z M 840.988281 928.21875 " fill-opacity="1" fill-rule="nonzero"/></g><g clip-path="url(#864d461914)"><path fill="#ffffff" d="M 438.820312 713.96875 C 437.429688 710.109375 436.128906 706.226562 434.886719 702.328125 C 434.625 701.503906 434.367188 700.679688 434.109375 699.851562 C 432.902344 695.949219 431.757812 692.035156 430.703125 688.09375 C 430.5625 687.566406 430.433594 687.039062 430.296875 686.515625 C 429.320312 682.796875 428.414062 679.054688 427.574219 675.304688 C 427.4375 674.691406 427.289062 674.078125 427.152344 673.460938 C 426.285156 669.484375 425.507812 665.488281 424.792969 661.472656 C 424.644531 660.644531 424.503906 659.8125 424.359375 658.980469 C 423.667969 654.902344 423.03125 650.8125 422.492188 646.703125 C 422.453125 646.382812 422.421875 646.058594 422.378906 645.738281 C 421.878906 641.8125 421.464844 637.867188 421.105469 633.914062 C 421.035156 633.164062 420.960938 632.410156 420.898438 631.660156 C 420.558594 627.59375 420.296875 623.511719 420.113281 619.421875 C 420.074219 618.59375 420.046875 617.761719 420.015625 616.933594 C 419.851562 612.695312 419.746094 608.453125 419.746094 604.1875 C 419.746094 599.851562 419.839844 595.53125 420.007812 591.226562 C 420.0625 589.800781 420.171875 588.382812 420.246094 586.957031 C 420.394531 584.082031 420.546875 581.207031 420.769531 578.347656 C 420.898438 576.664062 421.078125 575 421.238281 573.324219 C 421.480469 570.730469 421.726562 568.140625 422.03125 565.558594 C 422.238281 563.796875 422.484375 562.039062 422.71875 560.285156 C 423.050781 557.804688 423.394531 555.328125 423.785156 552.863281 C 424.066406 551.074219 424.375 549.292969 424.683594 547.515625 C 425.109375 545.09375 425.554688 542.679688 426.03125 540.273438 C 426.386719 538.496094 426.753906 536.71875 427.136719 534.949219 C 427.660156 532.546875 428.210938 530.15625 428.785156 527.769531 C 429.203125 526.027344 429.621094 524.289062 430.070312 522.558594 C 430.695312 520.140625 431.363281 517.738281 432.042969 515.339844 C 432.515625 513.667969 432.984375 511.992188 433.484375 510.328125 C 434.238281 507.835938 435.042969 505.363281 435.855469 502.890625 C 436.359375 501.351562 436.84375 499.808594 437.371094 498.277344 C 438.324219 495.523438 439.339844 492.792969 440.367188 490.070312 C 440.828125 488.847656 441.253906 487.617188 441.730469 486.398438 C 443.269531 482.460938 444.878906 478.546875 446.574219 474.667969 C 446.644531 474.507812 446.726562 474.347656 446.792969 474.183594 C 448.421875 470.480469 450.121094 466.808594 451.890625 463.164062 C 452.5 461.90625 453.160156 460.667969 453.789062 459.414062 C 455.0625 456.882812 456.335938 454.351562 457.675781 451.847656 C 458.460938 450.382812 459.292969 448.933594 460.101562 447.476562 C 461.359375 445.214844 462.617188 442.957031 463.933594 440.722656 C 464.832031 439.191406 465.765625 437.683594 466.691406 436.167969 C 467.992188 434.03125 469.308594 431.90625 470.660156 429.800781 C 471.648438 428.261719 472.65625 426.738281 473.671875 425.210938 C 474.410156 424.097656 475.113281 422.972656 475.867188 421.867188 C 434.980469 403.359375 390.097656 393.648438 344.953125 393.648438 C 169.996094 393.648438 27.660156 535.984375 27.660156 710.941406 L 27.660156 714.355469 L 438.949219 714.355469 C 438.90625 714.226562 438.867188 714.097656 438.820312 713.96875 Z M 438.820312 713.96875 " fill-opacity="1" fill-rule="nonzero"/></g><g clip-path="url(#fa359a4275)"><path fill="#ffffff" d="M 1155.039062 361.246094 C 1248.867188 361.246094 1325.203125 284.914062 1325.203125 191.085938 C 1325.203125 97.257812 1248.867188 20.921875 1155.039062 20.921875 C 1061.214844 20.921875 984.878906 97.257812 984.878906 191.085938 C 984.878906 284.914062 1061.214844 361.246094 1155.039062 361.246094 Z M 1155.039062 361.246094 " fill-opacity="1" fill-rule="nonzero"/></g><g clip-path="url(#e69b5786e4)"><path fill="#ffffff" d="M 344.957031 361.246094 C 438.785156 361.246094 515.121094 284.914062 515.121094 191.085938 C 515.121094 97.257812 438.785156 20.921875 344.957031 20.921875 C 251.128906 20.921875 174.792969 97.257812 174.792969 191.085938 C 174.792969 284.914062 251.128906 361.246094 344.957031 361.246094 Z M 344.957031 361.246094 " fill-opacity="1" fill-rule="nonzero"/></g><g clip-path="url(#fcc09c25f2)"><path fill="#ffffff" d="M 1155.039062 393.648438 C 1106.269531 393.648438 1058.109375 404.902344 1014.683594 426.328125 C 1015.441406 427.476562 1016.144531 428.644531 1016.886719 429.800781 C 1017.835938 431.28125 1018.789062 432.765625 1019.710938 434.261719 C 1021.003906 436.355469 1022.257812 438.464844 1023.503906 440.578125 C 1024.359375 442.035156 1025.21875 443.488281 1026.050781 444.953125 C 1027.328125 447.203125 1028.550781 449.476562 1029.765625 451.753906 C 1030.5 453.117188 1031.25 454.472656 1031.960938 455.839844 C 1033.300781 458.4375 1034.582031 461.058594 1035.847656 463.6875 C 1036.367188 464.765625 1036.917969 465.828125 1037.425781 466.914062 C 1039.183594 470.652344 1040.871094 474.421875 1042.476562 478.222656 C 1042.5625 478.425781 1042.640625 478.632812 1042.722656 478.835938 C 1044.230469 482.414062 1045.667969 486.019531 1047.039062 489.648438 C 1047.511719 490.882812 1047.929688 492.136719 1048.382812 493.375 C 1049.335938 495.988281 1050.28125 498.609375 1051.160156 501.246094 C 1051.660156 502.734375 1052.117188 504.238281 1052.59375 505.738281 C 1053.363281 508.152344 1054.125 510.566406 1054.832031 513 C 1055.304688 514.613281 1055.742188 516.234375 1056.1875 517.851562 C 1056.832031 520.199219 1057.46875 522.546875 1058.058594 524.90625 C 1058.476562 526.589844 1058.878906 528.273438 1059.269531 529.957031 C 1059.8125 532.289062 1060.335938 534.625 1060.828125 536.96875 C 1061.1875 538.683594 1061.539062 540.40625 1061.867188 542.132812 C 1062.320312 544.476562 1062.742188 546.832031 1063.144531 549.1875 C 1063.4375 550.917969 1063.730469 552.640625 1063.996094 554.375 C 1064.363281 556.773438 1064.691406 559.1875 1065.007812 561.601562 C 1065.226562 563.300781 1065.460938 565 1065.65625 566.707031 C 1065.945312 569.21875 1066.175781 571.742188 1066.40625 574.265625 C 1066.550781 575.886719 1066.722656 577.5 1066.84375 579.125 C 1067.050781 581.910156 1067.199219 584.707031 1067.339844 587.503906 C 1067.410156 588.878906 1067.507812 590.246094 1067.5625 591.621094 C 1067.71875 595.796875 1067.808594 599.988281 1067.808594 604.191406 C 1067.808594 608.449219 1067.699219 612.691406 1067.535156 616.921875 C 1067.503906 617.757812 1067.476562 618.59375 1067.441406 619.429688 C 1067.25 623.515625 1066.992188 627.589844 1066.65625 631.648438 C 1066.59375 632.414062 1066.515625 633.179688 1066.445312 633.945312 C 1066.09375 637.859375 1065.683594 641.765625 1065.183594 645.652344 C 1065.136719 646.015625 1065.105469 646.375 1065.054688 646.734375 C 1064.523438 650.8125 1063.894531 654.871094 1063.207031 658.917969 C 1063.058594 659.792969 1062.90625 660.664062 1062.753906 661.535156 C 1062.042969 665.511719 1061.269531 669.472656 1060.414062 673.414062 C 1060.265625 674.085938 1060.105469 674.75 1059.953125 675.417969 C 1059.128906 679.09375 1058.242188 682.757812 1057.285156 686.40625 C 1057.132812 686.984375 1056.996094 687.566406 1056.839844 688.144531 C 1055.792969 692.050781 1054.65625 695.933594 1053.460938 699.804688 C 1053.191406 700.664062 1052.921875 701.527344 1052.648438 702.386719 C 1051.414062 706.265625 1050.121094 710.128906 1048.738281 713.964844 C 1048.6875 714.097656 1048.648438 714.234375 1048.601562 714.367188 L 1472.324219 714.367188 L 1472.324219 710.949219 C 1472.332031 535.984375 1329.996094 393.648438 1155.039062 393.648438 Z M 1155.039062 393.648438 " fill-opacity="1" fill-rule="nonzero"/></g><path fill="#ffffff" d="M 452.148438 604.183594 C 452.148438 645.902344 460.773438 686.179688 477.773438 723.898438 C 524.851562 828.335938 629.265625 895.816406 743.78125 895.816406 C 858.292969 895.816406 962.707031 828.335938 1009.785156 723.898438 C 1026.792969 686.175781 1035.410156 645.898438 1035.410156 604.183594 C 1035.410156 540.976562 1015.519531 480.835938 977.894531 430.273438 C 922.222656 355.460938 836.890625 312.554688 743.78125 312.554688 C 652.933594 312.554688 568.867188 353.804688 513.128906 425.726562 C 473.238281 477.207031 452.148438 538.917969 452.148438 604.183594 Z M 452.148438 604.183594 " fill-opacity="1" fill-rule="nonzero"/></svg>